<?xml version="1.0" encoding="UTF-8" standalone="no"?>
<!-- Created with Inkscape (http://www.inkscape.org/) -->

<svg
   xmlns:dc="http://purl.org/dc/elements/1.1/"
   xmlns:cc="http://creativecommons.org/ns#"
   xmlns:rdf="http://www.w3.org/1999/02/22-rdf-syntax-ns#"
   xmlns:svg="http://www.w3.org/2000/svg"
   xmlns="http://www.w3.org/2000/svg"
   xmlns:sodipodi="http://sodipodi.sourceforge.net/DTD/sodipodi-0.dtd"
   xmlns:inkscape="http://www.inkscape.org/namespaces/inkscape"
   width="210mm"
   height="297mm"
   viewBox="0 0 210 297"
   version="1.1"
   id="svg8"
   inkscape:version="0.92.2 (5c3e80d, 2017-08-06)"
   sodipodi:docname="innkscape.svg">
  <defs
     id="defs2" />
  <sodipodi:namedview
     id="base"
     pagecolor="#ffffff"
     bordercolor="#666666"
     borderopacity="1.0"
     inkscape:pageopacity="0.0"
     inkscape:pageshadow="2"
     inkscape:zoom="2.8"
     inkscape:cx="298.50276"
     inkscape:cy="792.86351"
     inkscape:document-units="mm"
     inkscape:current-layer="layer1"
     showgrid="false"
     inkscape:window-width="1920"
     inkscape:window-height="1016"
     inkscape:window-x="0"
     inkscape:window-y="27"
     inkscape:window-maximized="1" />
  <metadata
     id="metadata5">
    <rdf:RDF>
      <cc:Work
         rdf:about="">
        <dc:format>image/svg+xml</dc:format>
        <dc:type
           rdf:resource="http://purl.org/dc/dcmitype/StillImage" />
        <dc:title></dc:title>
      </cc:Work>
    </rdf:RDF>
  </metadata>
  <g
     inkscape:label="Layer 1"
     inkscape:groupmode="layer"
     id="layer1">
    <g
       id="g3847">
      <polyline
         transform="matrix(0.26458333,0,0,0.26458333,13.238871,16.484971)"
         id="polyline3775"
         points="236.5,302.0,244.5,295.0,252.5,290.5,260.5,285.0"
         style="fill:none;stroke:#000000;stroke-width:2" />
      <polyline
         transform="matrix(0.26458333,0,0,0.26458333,13.238871,16.484971)"
         id="polyline3779"
         points="370.5,344.0,362.0,357.5,353.5,370.0,345.5,378.0,338.0,385.0,330.5,389.0,323.0,391.5,315.0,393.5,307.0,394.5,298.5,396.5,290.5,398.5,282.5,399.5,274.5,401.5,266.5,402.5,258.5,404.5,251.0,404.5,243.0,404.5,234.5,404.5,227.0,404.5,219.5,403.0,211.5,402.0,203.5,400.0,195.5,398.0,187.5,395.0,179.0,394.0,171.0,391.0,163.0,389.0,155.5,386.5,147.0,381.5,139.5,376.0,131.5,370.0,123.5,362.5,115.5,360.5"
         style="fill:none;stroke:#000000;stroke-width:2" />
      <polyline
         transform="matrix(0.26458333,0,0,0.26458333,13.238871,16.484971)"
         id="polyline3785"
         points="356.5,203.5,356.5,195.5,356.5,187.0,357.0,179.0,357.0,170.5,359.5,163.0,359.5,155.0,359.0,147.5,354.0,144.5,345.5,144.5"
         style="fill:none;stroke:#000000;stroke-width:2" />
      <polyline
         transform="matrix(0.26458333,0,0,0.26458333,13.238871,16.484971)"
         id="polyline3787"
         points="348.0,144.5,347.5,152.5,345.5,161.0,345.5,168.5,345.5,176.5,345.5,184.0,345.5,192.0,345.5,200.0,345.5,208.0,353.5,208.0"
         style="fill:none;stroke:#000000;stroke-width:2" />
      <polyline
         transform="matrix(0.26458333,0,0,0.26458333,13.238871,16.484971)"
         id="polyline3791"
         points="244.0,248.0,244.0,256.0,248.0,264.0,253.0,272.0,260.5,280.0,257.0,288.0,242.5,296.0,236.5,303.5,236.5,311.0,243.5,311.5,251.5,309.5,259.5,302.5,267.5,298.5,275.5,295.0,283.5,290.0"
         style="fill:none;stroke:#000000;stroke-width:2" />
      <polyline
         transform="matrix(0.26458333,0,0,0.26458333,13.238871,16.484971)"
         id="polyline3793"
         points="256.5,250.5,263.5,258.5,269.5,266.0,284.0,274.0,288.0,282.0,288.0,290.0,270.0,298.0,256.0,306.0"
         style="fill:none;stroke:#000000;stroke-width:2" />
      <polyline
         transform="matrix(0.26458333,0,0,0.26458333,13.238871,16.484971)"
         id="polyline3795"
         points="144.5,217.5,144.0,210.0,144.0,201.5,144.0,194.0,144.5,186.5,144.5,179.0,145.0,171.5,144.0,163.5,143.0,156.0,142.0,148.5,137.5,145.5,129.5,145.5"
         style="fill:none;stroke:#000000;stroke-width:2" />
      <polyline
         transform="matrix(0.26458333,0,0,0.26458333,13.238871,16.484971)"
         id="polyline3797"
         points="129.0,145.0,129.0,152.5,129.0,160.5,129.5,168.5,131.5,176.5,132.0,184.0,132.0,192.0,132.0,200.0,132.0,207.5,132.0,215.0,132.0,223.0,141.0,222.5"
         style="fill:none;stroke:#000000;stroke-width:2" />
    </g>
  </g>
</svg>
