<svg xmlns="http://www.w3.org/2000/svg" version="1.1"><polyline points="25.5,1.0,26.0,8.5,26.0,17.0,26.5,25.0,27.0,33.5,27.5,41.5,27.5,50.0,28.0,58.5,28.0,67.0,27.5,75.0,27.5,83.0,27.5,91.0,27.5,99.0,27.5,107.0,27.5,115.5,28.0,123.5,29.5,131.5,30.0,139.0,32.0,146.5,35.0,155.0,38.0,162.5,41.5,170.5,45.0,178.5,50.5,186.5,56.5,194.5,62.5,202.5,69.5,210.0,76.5,218.0,85.5,226.5,95.5,234.5,106.5,243.0,119.0,250.5" stroke="black" stroke-width="2" fill="none" />
<!-- <polyline points="132.0,252.0,123.5,248.0,115.0,244.0,107.0,239.0,99.0,233.0,91.0,227.0,83.5,220.5,75.5,212.5,67.5,204.5,60.0,194.5,52.5,182.5,44.5,167.5,36.5,148.0" stroke="black" stroke-width="2" fill="none" /> -->
<polyline points="33.0,146.5,41.5,167.5,49.5,182.5,57.5,194.5,66.0,204.5,74.0,213.5,82.5,221.5,90.5,228.5,98.5,234.5,106.5,240.5,114.5,246.0,122.0,249.5,130.0,255.0,138.0,256.0,145.5,252.0,153.5,247.0,161.5,242.0,169.0,236.5,176.5,230.0,184.0,223.0,192.0,215.0,200.0,207.5,208.5,198.5,217.0,186.5,225.5,173.5,233.5,156.0" stroke="black" stroke-width="2" fill="none" />
<polyline points="202.5,170.0,200.0,174.0,198.0,169.0,204.0,159.5,196.5,160.0" stroke="black" stroke-width="2" fill="none" />
<polyline points="208.0,158.5,200.0,146.0,191.5,142.5,184.0,141.0,176.5,142.0,168.5,146.0,161.0,158.0" stroke="black" stroke-width="2" fill="none" />
<polyline points="166.5,160.0,169.0,156.5,169.0,165.0,167.0,172.5,167.0,182.5,175.5,188.5,183.0,191.0,191.5,190.0,199.5,187.0,208.0,177.0" stroke="black" stroke-width="2" fill="none" />
<polyline points="201.0,186.5,207.5,178.5,210.5,170.5,209.5,162.0,206.0,153.5,197.5,145.5,183.5,151.5" stroke="black" stroke-width="2" fill="none" />
<polyline points="184.5,153.0,182.5,160.5,181.5,173.5,183.5,181.5,182.0,183.5,190.5,172.0" stroke="black" stroke-width="2" fill="none" />
<polyline points="183.5,185.5,168.0,184.0,163.0,176.0,161.0,168.0,162.0,159.5,165.5,151.5,174.5,143.5,180.0,147.0" stroke="black" stroke-width="2" fill="none" />
<polyline points="171.0,158.5,171.0,165.5,173.0,172.5" stroke="black" stroke-width="2" fill="none" />
<polyline points="162.0,221.5,154.5,223.0,146.5,216.0" stroke="black" stroke-width="2" fill="none" />
<polyline points="144.0,229.5,142.0,237.5,135.0,245.5" stroke="black" stroke-width="2" fill="none" />
<polyline points="128.5,236.5,128.0,229.0" stroke="black" stroke-width="2" fill="none" />
<polyline points="116.0,221.5,107.5,220.5" stroke="black" stroke-width="2" fill="none" />
<polyline points="107.5,221.0,109.5,229.0,112.5,230.0,121.0,232.0,131.0,241.0" stroke="black" stroke-width="2" fill="none" />
<polyline points="104.0,156.0,96.0,146.0,88.0,141.5" stroke="black" stroke-width="2" fill="none" />
<polyline points="89.5,142.0,96.0,150.5,97.0,158.5,92.0,166.5" stroke="black" stroke-width="2" fill="none" />
<polyline points="92.5,166.0,84.5,169.5,76.0,168.0,68.0,158.0" stroke="black" stroke-width="2" fill="none" />
<polyline points="69.0,149.5,72.0,147.0,68.0,155.0,69.5,162.5,80.5,170.5" stroke="black" stroke-width="2" fill="none" />
<polyline points="59.0,173.5,66.5,185.5,74.5,190.5,82.0,191.0,90.0,190.0,97.5,185.0" stroke="black" stroke-width="2" fill="none" />
<polyline points="66.0,186.0,59.5,178.0,57.0,170.0,57.5,161.5,59.5,154.0,65.5,146.0,73.5,141.0,65.5,146.0,57.5,159.0" stroke="black" stroke-width="2" fill="none" />
<polyline points="57.0,139.5,49.0,131.5" stroke="black" stroke-width="2" fill="none" />
<polyline points="52.5,137.0,48.0,129.0,51.5,121.0,44.5,119.0,37.0,112.5" stroke="black" stroke-width="2" fill="none" />
<polyline points="38.0,111.5,46.0,113.0,54.0,112.5,62.0,112.5,70.0,112.5,78.0,112.5,85.5,112.0,94.0,112.0,102.0,112.0,110.0,112.0,117.5,112.0,126.0,112.5,133.5,111.0,140.5,112.0,149.5,111.5,157.5,111.5,165.5,111.5,173.0,111.5,181.0,111.5,188.5,112.0,196.0,112.0,204.0,112.5,212.5,112.0,220.5,112.0,228.5,112.0" stroke="black" stroke-width="2" fill="none" />
<polyline points="235.5,112.0,228.0,105.5,219.5,103.0" stroke="black" stroke-width="2" fill="none" />
<polyline points="226.5,118.0,218.0,120.0" stroke="black" stroke-width="2" fill="none" />
<polyline points="210.5,128.5,202.5,122.5,194.5,123.0,186.0,123.0,178.0,123.0,170.0,123.0,162.0,123.0,153.5,123.0,145.5,124.0" stroke="black" stroke-width="2" fill="none" />
<polyline points="148.0,123.0,146.0,131.0,146.0,139.0,146.0,147.0,145.5,155.0,145.5,163.0,145.5,171.0,145.5,179.0,145.5,187.5,145.5,195.5,145.5,204.0,145.5,212.0,148.0,219.5,161.0,225.0" stroke="black" stroke-width="2" fill="none" />
<polyline points="99.5,184.0,105.5,176.0,106.5,168.5,106.5,161.0,102.5,152.5,94.5,144.5" stroke="black" stroke-width="2" fill="none" />
<polyline points="123.0,123.5,123.0,132.0,122.5,140.0,122.5,148.0,122.0,156.0,122.0,163.5,123.0,171.5,123.5,179.0,123.5,187.0,124.0,195.0,124.0,203.0,122.5,211.0,117.5,219.0" stroke="black" stroke-width="2" fill="none" />
<polyline points="115.0,122.5,107.0,122.5,99.0,122.5,91.0,122.5,83.0,122.5,75.0,122.5,67.0,123.0,59.0,128.0,58.0,132.0,63.0,124.5" stroke="black" stroke-width="2" fill="none" />
<polyline points="60.5,94.0,68.5,101.0,77.0,101.0,85.0,101.0,92.5,100.5,100.5,101.0,108.5,100.5,116.5,101.0" stroke="black" stroke-width="2" fill="none" />
<polyline points="122.0,99.5,123.0,91.5,123.5,83.5,123.5,75.5,123.5,67.0,124.0,58.5,124.0,50.5,123.0,42.5,117.5,34.5,116.5,33.0,108.5,33.0" stroke="black" stroke-width="2" fill="none" />
<polyline points="114.0,23.5,106.5,31.5,109.5,26.5,118.0,23.5" stroke="black" stroke-width="2" fill="none" />
<polyline points="138.0,11.5,143.0,19.5" stroke="black" stroke-width="2" fill="none" />
<polyline points="137.0,9.5,136.0,17.5,136.0,25.5,136.0,33.5,135.5,42.0,135.5,50.0,136.0,58.5,136.0,66.0,136.0,74.0,136.0,82.0,135.5,90.5,136.0,98.0,135.5,106.0,134.5,112.5,135.0,120.5,134.5,128.5,134.5,136.0,135.0,144.0,135.0,152.5,135.0,160.5,135.5,169.0,135.0,176.5,135.0,184.5,135.0,192.5,135.0,201.0,135.5,209.0,136.0,217.5,136.5,225.5,136.5,233.5,136.5,241.0,140.0,242.0,148.5,231.0,156.5,232.0" stroke="black" stroke-width="2" fill="none" />
<polyline points="217.0,136.0,216.0,136.5,221.5,128.5,219.5,120.5,233.0,112.5,242.0,106.0,242.0,98.0,241.5,90.0,241.5,82.0,241.0,74.5,241.0,66.5,240.5,58.5,240.5,50.5,240.0,42.5,240.0,34.5,240.0,26.5,240.0,18.5,240.0,11.0,242.0,3.0,234.5,3.5,227.0,3.5,219.0,4.0,211.0,4.0,203.5,4.0,195.0,4.0,187.0,4.0,179.0,4.0,171.0,3.5,163.0,3.5,155.0,3.5,147.0,3.5,139.0,3.5,131.0,3.0,123.0,3.0,115.0,3.5,107.0,3.5,99.0,3.5,91.0,3.5,83.0,3.0,75.0,3.0,67.0,3.0,59.0,2.5,51.0,2.5,43.0,2.5,35.0,2.5,27.0,2.5" stroke="black" stroke-width="2" fill="none" />
<polyline points="58.5,48.5,67.0,37.0,74.5,33.0,82.5,31.5,90.0,32.5,97.5,36.5,105.5,49.0" stroke="black" stroke-width="2" fill="none" />
<polyline points="98.5,62.5,84.0,61.5,76.0,61.5" stroke="black" stroke-width="2" fill="none" />
<polyline points="63.5,50.0,71.0,50.0,69.0,54.5,71.0,62.5,66.0,56.5,65.5,64.5,65.5,74.5,73.0,80.5,81.0,81.5,89.5,80.0,97.5,75.0,105.5,63.0" stroke="black" stroke-width="2" fill="none" />
<polyline points="91.5,79.0,101.0,71.0,104.5,63.0,105.5,55.0,104.5,47.0,98.5,39.5,84.5,38.5,77.0,38.5" stroke="black" stroke-width="2" fill="none" />
<polyline points="77.5,36.5,79.5,44.5,79.5,44.5" stroke="black" stroke-width="2" fill="none" />
<polyline points="84.0,41.5,85.0,49.5" stroke="black" stroke-width="2" fill="none" />
<polyline points="75.5,32.0,62.5,40.5,57.5,48.5,56.5,56.5,58.0,64.5,62.0,72.5,73.0,80.5" stroke="black" stroke-width="2" fill="none" />
<polyline points="60.0,84.5,60.0,92.5" stroke="black" stroke-width="2" fill="none" />
<polyline points="49.5,91.0,57.5,85.0,50.5,89.0,48.5,97.0" stroke="black" stroke-width="2" fill="none" />
<polyline points="35.5,112.5,39.5,105.5,44.5,103.5,37.0,108.5,29.0,111.5" stroke="black" stroke-width="2" fill="none" />
<!-- <polyline points="28.5,111.5,29.5,120.0,30.5,128.0,31.5,136.0,33.0,144.0,36.5,152.0,39.5,160.0,42.5,168.0,46.5,176.0,51.5,184.0,56.5,192.0,62.5,200.0,70.0,208.0,78.0,216.0,87.0,224.0,97.0,232.0,108.5,240.0,121.5,247.5" stroke="black" stroke-width="2" fill="none" /> -->
<polyline points="210.5,141.0,210.5,133.0,203.0,125.0" stroke="black" stroke-width="2" fill="none" />
<polyline points="217.5,86.5,209.5,83.0" stroke="black" stroke-width="2" fill="none" />
<polyline points="210.5,84.5,210.5,92.5,203.5,101.0" stroke="black" stroke-width="2" fill="none" />
<polyline points="214.5,85.0,221.5,92.5,219.5,100.5,232.5,108.5" stroke="black" stroke-width="2" fill="none" />
<polyline points="198.0,76.0,206.0,68.5,209.0,60.5,210.5,53.0,207.5,45.0,201.0,37.0,195.0,35.5" stroke="black" stroke-width="2" fill="none" />
<polyline points="192.0,32.5,200.0,36.5,208.0,45.0" stroke="black" stroke-width="2" fill="none" />
<polyline points="197.0,53.5,188.5,58.5,181.0,58.0,173.0,50.0" stroke="black" stroke-width="2" fill="none" />
<polyline points="180.5,57.5,172.5,50.0,171.5,42.5,175.5,34.5,173.0,37.5" stroke="black" stroke-width="2" fill="none" />
<polyline points="160.0,47.5,168.0,36.5,176.0,32.0,166.5,38.0,162.0,46.0,160.0,53.5,161.0,61.5,164.0,69.5,172.0,77.5" stroke="black" stroke-width="2" fill="none" />
<polyline points="161.5,64.5,170.0,75.5,178.5,79.5,186.5,80.5,194.5,79.0,203.0,74.5" stroke="black" stroke-width="2" fill="none" />
<polyline points="207.0,98.0,198.5,101.0,190.5,101.0,182.5,101.0,174.5,101.5,166.5,101.5,159.0,101.5,150.5,101.5,145.5,98.0,145.5,90.0,145.5,82.0,145.5,74.0,145.5,66.0,146.0,58.0,146.5,50.0,146.5,42.0,153.5,34.0" stroke="black" stroke-width="2" fill="none" />
<polyline points="162.5,33.5,154.5,33.5,146.0,41.5" stroke="black" stroke-width="2" fill="none" />
<polyline points="155.0,25.0,163.0,33.0" stroke="black" stroke-width="2" fill="none" />
<polyline points="192.5,31.5,199.5,39.5,199.5,47.5,194.5,55.5" stroke="black" stroke-width="2" fill="none" />
<polyline points="243.0,4.0,243.0,12.0,243.5,20.0,243.5,28.0,244.0,36.0,244.5,44.0,244.0,52.0,244.0,60.5,243.5,68.5,243.5,76.0,243.5,84.0,243.5,92.0,243.5,100.0,243.5,108.0,242.5,116.0,241.5,123.5,240.0,132.0,237.5,140.0,235.0,148.0,231.5,156.0,228.5,164.0,225.0,172.0,220.5,180.0,216.0,188.5,210.0,196.5,204.5,204.5,196.5,212.5,189.0,220.5,180.0,228.0,169.5,236.0,157.5,244.0,143.5,252.0" stroke="black" stroke-width="2" fill="none" />
<polyline points="161.0,27.0,153.0,23.0,145.0,26.0,137.0,10.5,128.5,14.5,126.5,20.0,131.5,12.0,134.5,4.0" stroke="black" stroke-width="2" fill="none" />
</svg>
